<svg xmlns="http://www.w3.org/2000/svg" xmlns:xlink="http://www.w3.org/1999/xlink" xml:space="preserve" stroke-miterlimit="10" style="fill-rule:nonzero;clip-rule:evenodd;stroke-linecap:round;stroke-linejoin:round" viewBox="0 0 1450 1450"><defs><radialGradient id="c" cx="0" cy="0" r="1" gradientTransform="translate(725 725)scale(508.008)" gradientUnits="userSpaceOnUse"><stop offset="0" stop-color="#2e3037"/><stop offset=".6" stop-color="#2e3037"/><stop offset="1" stop-color="#fff" stop-opacity="0"/></radialGradient><radialGradient id="d" cx="0" cy="0" r="1" gradientTransform="translate(725 725)scale(436.458)" gradientUnits="userSpaceOnUse"><stop offset="0" stop-color="#2e3037"/><stop offset=".6" stop-color="#2e3037"/><stop offset="1" stop-color="#fff" stop-opacity="0"/></radialGradient><radialGradient id="e" cx="0" cy="0" r="1" gradientTransform="translate(725 725)scale(364.907)" gradientUnits="userSpaceOnUse"><stop offset="0" stop-color="#2e3037"/><stop offset=".6" stop-color="#2e3037"/><stop offset="1" stop-color="#fff" stop-opacity="0"/></radialGradient><radialGradient id="f" cx="0" cy="0" r="1" gradientTransform="translate(725 725)scale(293.357)" gradientUnits="userSpaceOnUse"><stop offset="0" stop-color="#2e3037"/><stop offset=".6" stop-color="#2e3037"/><stop offset="1" stop-color="#fff" stop-opacity="0"/></radialGradient><radialGradient id="g" cx="0" cy="0" r="1" gradientTransform="translate(725 725)scale(221.806)" gradientUnits="userSpaceOnUse"><stop offset="0" stop-color="#2e3037"/><stop offset=".6" stop-color="#2e3037"/><stop offset="1" stop-color="#fff" stop-opacity="0"/></radialGradient><radialGradient id="h" cx="0" cy="0" r="1" gradientTransform="translate(725 725)scale(150.256)" gradientUnits="userSpaceOnUse"><stop offset="0" stop-color="#2e3037"/><stop offset=".6" stop-color="#2e3037"/><stop offset="1" stop-color="#fff" stop-opacity="0"/></radialGradient><path id="a" d="M0 200C0 89.543 89.543 0 200 0h1050c110.46 0 200 89.543 200 200v1050c0 110.46-89.54 200-200 200H200c-110.457 0-200-89.54-200-200z"/></defs><use xlink:href="#a" fill="#484b58"/><clipPath id="b" clip-rule="nonzero"><use xlink:href="#a"/></clipPath><g clip-path="url(#b)"><path fill="#484b58" d="M0 0h1450v1450H0z"/></g><path fill="url(#c)" d="M216.992 725c0-280.565 227.443-508.008 508.008-508.008 280.57 0 508.01 227.443 508.01 508.008 0 280.57-227.44 508.01-508.01 508.01-280.565 0-508.008-227.44-508.008-508.01"/><path fill="#32343b" d="M224.147 725c0-276.613 224.24-500.853 500.853-500.853 276.61 0 500.85 224.24 500.85 500.853 0 276.61-224.24 500.85-500.85 500.85-276.613 0-500.853-224.24-500.853-500.85"/><path fill="url(#d)" d="M288.542 725c0-241.049 195.409-436.458 436.458-436.458S1161.46 483.951 1161.46 725 966.049 1161.46 725 1161.46 288.542 966.049 288.542 725"/><path fill="#373942" d="M295.697 725c0-237.097 192.206-429.303 429.303-429.303S1154.3 487.903 1154.3 725 962.097 1154.3 725 1154.3 295.697 962.097 295.697 725"/><path fill="url(#e)" d="M360.093 725c0-201.533 163.374-364.907 364.907-364.907S1089.91 523.467 1089.91 725 926.533 1089.91 725 1089.91 360.093 926.533 360.093 725"/><path fill="#3c3f4a" d="M367.248 725c0-197.581 160.171-357.752 357.752-357.752S1082.75 527.419 1082.75 725 922.581 1082.75 725 1082.75 367.248 922.581 367.248 725"/><path fill="url(#f)" d="M431.643 725c0-162.016 131.341-293.357 293.357-293.357S1018.36 562.984 1018.36 725 887.016 1018.36 725 1018.36 431.643 887.016 431.643 725"/><path fill="#424551" d="M438.798 725c0-158.065 128.137-286.202 286.202-286.202S1011.2 566.935 1011.2 725 883.065 1011.2 725 1011.2 438.798 883.065 438.798 725"/><path fill="url(#g)" d="M503.194 725c0-122.5 99.306-221.806 221.806-221.806S946.806 602.5 946.806 725 847.5 946.806 725 946.806 503.194 847.5 503.194 725"/><path fill="#484b58" d="M510.349 725c0-118.549 96.102-214.651 214.651-214.651S939.651 606.451 939.651 725 843.549 939.651 725 939.651 510.349 843.549 510.349 725"/><path fill="url(#h)" d="M574.744 725c0-82.984 67.272-150.256 150.256-150.256S875.256 642.016 875.256 725 807.984 875.256 725 875.256 574.744 807.984 574.744 725"/><path fill="#4d505f" d="M581.899 725c0-79.032 64.069-143.101 143.101-143.101S868.101 645.968 868.101 725 804.032 868.101 725 868.101 581.899 804.032 581.899 725"/><path fill="none" stroke="#efeff0" stroke-linecap="butt" stroke-linejoin="miter" stroke-width="40" d="M216.992 724.992c0-280.56 227.44-508 508-508 280.558 0 507.998 227.44 507.998 508 0 280.558-227.44 507.998-507.998 507.998-280.561 0-508-227.44-508-507.998Zm224.574-65.395c-80.385.351-156.418 18.966-224.219 51.844-.118 4.518-.343 9.017-.343 13.563 0 183.106 96.924 343.546 242.218 432.936 6.496-180.36 104.98-337.384 250.063-425.468-78.323-46.644-169.912-73.301-267.719-72.875Zm534.656-2.312c-279.884 1.221-507.016 223.469-517 500.655 77.323 47.57 168.342 75.07 265.782 75.07 280.556 0 508.006-227.45 508.006-508.006 0-.377-.03-.748-.04-1.125-75.87-42.706-163.46-67-256.748-66.594Z"/></svg>