<svg xmlns="http://www.w3.org/2000/svg" xmlns:xlink="http://www.w3.org/1999/xlink" xml:space="preserve" stroke-miterlimit="10" style="fill-rule:nonzero;clip-rule:evenodd;stroke-linecap:round;stroke-linejoin:round" viewBox="0 0 1450 1450"><defs><path id="a" d="M0 200C0 89.543 89.543 0 200 0h1050c110.46 0 200 89.543 200 200v1050c0 110.46-89.54 200-200 200H200c-110.457 0-200-89.54-200-200z"/></defs><use xlink:href="#a" fill="#484b58"/><clipPath id="b" clip-rule="nonzero"><use xlink:href="#a"/></clipPath><g clip-path="url(#b)"><path fill="#484b58" d="M0 0h1450v1450H0z"/></g><g transform="translate(194.73 194.73)"><defs><radialGradient id="k" cx="0" cy="0" r="1" gradientTransform="matrix(496 0 0 496 530.3 530.3)" gradientUnits="userSpaceOnUse"><stop offset="0" style="stop-color:#4d505f;stop-opacity:1"/><stop offset=".4" style="stop-color:#4d505f;stop-opacity:1"/><stop offset=".4" style="stop-color:#fff;stop-opacity:0"/></radialGradient><radialGradient id="j" cx="0" cy="0" r="1" gradientTransform="matrix(496 0 0 496 530.3 530.3)" gradientUnits="userSpaceOnUse"><stop offset=".24" style="stop-color:#2e3037;stop-opacity:1"/><stop offset=".418" style="stop-color:#2e3037;stop-opacity:0"/><stop offset=".42" style="stop-color:#fff;stop-opacity:0"/></radialGradient><radialGradient id="i" cx="0" cy="0" r="1" gradientTransform="matrix(496 0 0 496 530.3 530.3)" gradientUnits="userSpaceOnUse"><stop offset="0" style="stop-color:#484b58;stop-opacity:1"/><stop offset=".6" style="stop-color:#484b58;stop-opacity:1"/><stop offset=".6" style="stop-color:#fff;stop-opacity:0"/></radialGradient><radialGradient id="h" cx="0" cy="0" r="1" gradientTransform="matrix(496 0 0 496 530.3 530.3)" gradientUnits="userSpaceOnUse"><stop offset=".36" style="stop-color:#2e3037;stop-opacity:1"/><stop offset=".618" style="stop-color:#2e3037;stop-opacity:0"/><stop offset=".62" style="stop-color:#fff;stop-opacity:0"/></radialGradient><radialGradient id="g" cx="0" cy="0" r="1" gradientTransform="matrix(496 0 0 496 530.3 530.3)" gradientUnits="userSpaceOnUse"><stop offset="0" style="stop-color:#424551;stop-opacity:1"/><stop offset=".8" style="stop-color:#424551;stop-opacity:1"/><stop offset=".8" style="stop-color:#fff;stop-opacity:0"/></radialGradient><radialGradient id="f" cx="0" cy="0" r="1" gradientTransform="matrix(496 0 0 496 530.3 530.3)" gradientUnits="userSpaceOnUse"><stop offset=".64" style="stop-color:#2e3037;stop-opacity:1"/><stop offset=".818" style="stop-color:#2e3037;stop-opacity:0"/><stop offset=".82" style="stop-color:#fff;stop-opacity:0"/></radialGradient><radialGradient id="e" cx="0" cy="0" r="1" gradientTransform="matrix(496 0 0 496 530.3 530.3)" gradientUnits="userSpaceOnUse"><stop offset="0" style="stop-color:#3c3f4a;stop-opacity:1"/><stop offset="1" style="stop-color:#3c3f4a;stop-opacity:1"/><stop offset="1" style="stop-color:#fff;stop-opacity:0"/></radialGradient><radialGradient id="d" cx="0" cy="0" r="1" gradientTransform="matrix(496 0 0 496 530.3 530.3)" gradientUnits="userSpaceOnUse"><stop offset=".64" style="stop-color:#2e3037;stop-opacity:1"/><stop offset="1.018" style="stop-color:#2e3037;stop-opacity:0"/><stop offset="1.02" style="stop-color:#fff;stop-opacity:0"/></radialGradient><radialGradient id="c" cx="0" cy="0" r="1" gradientTransform="matrix(496 0 0 496 530.3 530.3)" gradientUnits="userSpaceOnUse"><stop offset="0" style="stop-color:#373942;stop-opacity:1"/><stop offset="1.2" style="stop-color:#373942;stop-opacity:1"/><stop offset="1.2" style="stop-color:#fff;stop-opacity:0"/></radialGradient></defs><circle cx="530.27" cy="530.27" r="496" fill="url(#a)"/><circle cx="530.27" cy="530.27" r="496" fill="url(#b)"/><circle cx="530.27" cy="530.27" r="496" fill="url(#c)"/><circle cx="530.27" cy="530.27" r="496" fill="url(#d)"/><circle cx="530.27" cy="530.27" r="496" fill="url(#e)"/><circle cx="530.27" cy="530.27" r="496" fill="url(#f)"/><circle cx="530.27" cy="530.27" r="496" fill="url(#g)"/><circle cx="530.27" cy="530.27" r="496" fill="url(#h)"/><circle cx="530.27" cy="530.27" r="496" fill="url(#i)"/><circle cx="530.27" cy="530.27" r="496" fill="url(#j)"/><circle cx="530.27" cy="530.27" r="496" fill="url(#k)"/><path fill="none" stroke="#EFEFF0" stroke-linecap="butt" stroke-linejoin="miter" stroke-width="40" d="M22.264 530.264c0-280.56 227.44-508 508-508s507.996 227.44 507.996 508-227.435 507.996-507.996 507.996-508-227.435-508-507.996Zm224.574-65.395c-80.385.351-156.418 18.966-224.219 51.844-.118 4.518-.343 9.017-.343 13.563 0 183.106 96.924 343.543 242.218 432.937 6.496-180.361 104.98-337.385 250.063-425.469-78.323-46.644-169.912-73.301-267.719-72.875Zm534.656-2.312c-279.884 1.221-507.016 223.469-517 500.656 77.323 47.567 168.342 75.067 265.782 75.067 280.56 0 508.004-227.444 508.004-508.004 0-.377-.03-.748-.04-1.125-75.868-42.706-163.458-67-256.746-66.594Z"/></g></svg>